<svg xmlns="http://www.w3.org/2000/svg" viewBox="0 0 269 269"><g data-name="Calque 2"><g data-name="Calque 1"><rect x="9" y="9" width="251" height="251" rx="43" ry="43" style="fill:none"/><path d="M217 266.5H52A49.56 49.56 0 0 1 2.5 217V52A49.56 49.56 0 0 1 52 2.5h165A49.56 49.56 0 0 1 266.5 52v165a49.56 49.56 0 0 1-49.5 49.5ZM52 15.5A36.54 36.54 0 0 0 15.5 52v165A36.54 36.54 0 0 0 52 253.5h165a36.54 36.54 0 0 0 36.5-36.5V52A36.54 36.54 0 0 0 217 15.5Z" style="stroke:#de0a1b;fill:#de0a1b;stroke-width:5px"/><path d="M108.06 113.53q11.47 12.59 11.48 34.22v5a5.05 5.05 0 0 1-5 5H50.9v1.1q.38 12.22 7.49 19.15t18.41 6.94c6.17 0 10.94-.8 14.34-2.4a29.53 29.53 0 0 0 9.15-6.85 9.81 9.81 0 0 1 2.69-2 8 8 0 0 1 3.23-.55h5.56a5 5 0 0 1 3.69 1.48 4.23 4.23 0 0 1 1.3 3.52c-.49 3.32-2.31 6.75-5.46 10.26s-7.65 6.48-13.5 8.88-12.86 3.61-21 3.61a40.72 40.72 0 0 1-21.09-5.46A40.05 40.05 0 0 1 41 180.31a53 53 0 0 1-6.56-21.64q-.37-5.55-.38-8.51t.38-8.51A49.47 49.47 0 0 1 41 120.93a40.5 40.5 0 0 1 14.62-14.62A41.16 41.16 0 0 1 76.8 101q19.8 0 31.26 12.53Zm-5.18 28.68v-.56q0-11.28-7.12-18t-19-6.75a26 26 0 0 0-18.22 6.85q-7.5 6.84-7.68 17.94v.56Z" style="stroke:#e30613;fill:#e30613;stroke-width:4px"/><path d="M227.48 79.49q12.68 10 12.67 29.23 0 12.94-6 22a36.58 36.58 0 0 1-16.09 13.51 55.24 55.24 0 0 1-22.48 4.44h-34V194a5.05 5.05 0 0 1-5 5H149a5.05 5.05 0 0 1-5-5V74.5a5.05 5.05 0 0 1 5-5h46.62q19.18 0 31.86 9.99ZM194.64 132q13.5 0 20.72-5.83t7.22-17.48q0-22.57-27.94-22.57h-33.11V132Z" style="fill:#e30613;stroke-width:4px;stroke:#de0a1b"/></g></g></svg>