<?xml version="1.0" encoding="UTF-8"?>
<svg xmlns="http://www.w3.org/2000/svg" xmlns:xlink="http://www.w3.org/1999/xlink" viewBox="0 0 30 30" width="30px" height="30px">
<g id="surface4070262">
<path style=" stroke:none;fill-rule:nonzero;fill:rgb(65.098041%,65.098041%,67.058825%);fill-opacity:1;" d="M 18 19 L 18 17 C 18.449219 16.777344 19.738281 15.246094 19.871094 14.046875 C 20.226562 14.019531 20.78125 13.695312 20.945312 12.414062 C 21.035156 11.722656 20.683594 11.335938 20.472656 11.214844 C 20.472656 11.214844 21 10.210938 21 9 C 21 6.574219 20.046875 4.5 18 4.5 C 18 4.5 17.289062 3 15 3 C 10.757812 3 9 5.722656 9 9 C 9 10.105469 9.527344 11.214844 9.527344 11.214844 C 9.316406 11.335938 8.964844 11.726562 9.054688 12.414062 C 9.21875 13.695312 9.773438 14.019531 10.128906 14.046875 C 10.261719 15.246094 11.550781 16.777344 12 17 L 12 19 C 11 22 3 20 3 27 L 27 27 C 27 20 19 22 18 19 Z M 18 19 "/>
</g>
</svg>
